<?xml version="1.0" encoding="utf-8"?>
<!-- Generator: Adobe Illustrator 25.4.1, SVG Export Plug-In . SVG Version: 6.00 Build 0)  -->
<svg version="1.1" id="Capa_1" xmlns="http://www.w3.org/2000/svg" xmlns:xlink="http://www.w3.org/1999/xlink" x="0px" y="0px"
	 viewBox="0 0 179.4 80" style="enable-background:new 0 0 179.4 80;" xml:space="preserve">
<style type="text/css">
	.st0{fill-rule:evenodd;clip-rule:evenodd;fill:#021D49;}
	.st1{fill-rule:evenodd;clip-rule:evenodd;fill:#AA182C;}
	.st2{fill-rule:evenodd;clip-rule:evenodd;fill:#FFFFFF;}
	.st3{fill:#AA182C;}
	.st4{fill:#FFFFFF;}
</style>
<g>
	<rect x="0" class="st0" width="179.4" height="79.3"/>
	<rect x="0" y="72.4" class="st1" width="179.4" height="7.6"/>
	<polygon class="st2" points="12.3,10.3 24.4,10.3 31.3,18.9 38,10.3 49.8,10.3 36.9,26 36.9,35 25.5,35 25.5,26.2 	"/>
	<path class="st2" d="M62.2,16.4v13h3.5c1-0.1,4-0.2,5.9-2.3c1.5-1.6,2.3-5,0.8-7.9c-1.5-2.9-5.7-2.8-5.7-2.8H62.2z M50.9,10.3h18.1
		c0,0,13.5,0.7,15,8.7c0.4,2.2,1.2,8-2.8,11.6c-0.7,0.6-4.7,3.8-12.2,4.3c-0.9,0.1-18.3,0-18.3,0L50.9,10.3z"/>
	<path class="st2" d="M95.1,25l7.8,0.1l-3.6-8.4L95.1,25z M81.8,35l13-24.7h9.8L116.9,35h-9.3l-2-4.3H92.3L90.1,35H81.8z"/>
	<rect x="12.4" y="42.5" class="st3" width="114.2" height="1"/>
	<path class="st3" d="M166.6,35.1l-0.7-0.1c-1.4-0.2-2.8-0.1-4.2,0.2l-8.7,1.9l-1.3-0.3c-0.7-0.1-1.3-0.4-1.9-0.7l-9.6-5.8l-1.6,1.5
		l5,7.4l-11.7,2.6l6.2,1.4c1.4,0.3,2.9,0.3,4.3,0l21.9-5c0.8-0.2,2.6-1.1,2.9-1.9C167.4,35.8,167.2,35.2,166.6,35.1"/>
	<polygon class="st3" points="130.1,36.9 128.8,38 131.5,41.4 135.5,40.5 	"/>
	<path class="st2" d="M15.7,52.1c0-0.3,0-1,0.2-1.2c0.3-0.3,1.3-0.4,1.8-0.4c3.7,0,6.4,2.6,6.4,6.5c0,1.7-0.6,3.3-1.7,4.5
		c-1.3,1.3-2.7,1.7-4.4,1.7c-1.8,0-2.2-0.4-2.2-2.3V52.1z M14.1,61.2c0,1.4,0.1,1.8-1.3,1.8c-0.2,0-0.5,0-0.5,0.2
		c0,0.2,0.2,0.3,0.4,0.3c0.4,0,0.8-0.1,1.3-0.1c1.5,0,3,0.1,4.5,0.1c2,0,3.8-0.4,5.4-1.7c1.4-1.3,2.2-3.1,2.2-5.1c0-2-1-3.9-2.6-5.1
		C21.8,50.4,19.9,50,18,50c-0.8,0-5.9,0.3-5.9,1c0,0.1,0.1,0.2,0.2,0.2c0.2,0,0.6-0.2,1-0.2c0.8,0,0.7,0.9,0.7,1.5V61.2z"/>
	<path class="st2" d="M32.6,58.6c0.1,0,0.2-0.1,0.2-0.1c0.2,0,0.1,0.5,0.1,0.6v1.3c0,0.7,0,1.1-0.5,1.6c-0.5,0.5-1.2,0.8-1.9,0.8
		c-0.8,0-1.4-0.4-1.4-1.2c0-1,0.8-1.6,1.6-2L32.6,58.6z M30.6,59.1c-1.1,0.6-3,1.5-3,3c0,1.1,1,1.7,1.9,1.7c1.8,0,3.1-1.6,3.3-1.6
		c0.3,0,0.4,1.5,1.4,1.5c0.5,0,1.1-0.3,1.5-0.6c0.1-0.1,0.5-0.4,0.5-0.7c0-0.1-0.1-0.2-0.1-0.2c-0.2,0-0.4,0.5-0.9,0.5
		c-0.7,0-0.7-1.2-0.7-1.7v-5c0-0.6,0.1-1.1-0.4-1.5c-0.5-0.4-1.2-0.5-1.9-0.5c-1.3,0-2.7,0.6-3.7,1.5c-0.4,0.3-0.9,1-0.9,1.5
		c0,0.2,0.1,0.3,0.3,0.3c0.2,0,0.7-0.2,0.9-0.3c0.3-0.2,0.4-0.4,0.6-0.8c0.5-1.1,1.1-1.8,2.4-1.8c1.3,0,1.3,0.9,1.3,1.9v0.9
		c0,0.8,0,0.8-0.8,1.2L30.6,59.1z"/>
	<path class="st4" d="M40.1,49c0-0.2,0-0.3-0.2-0.3c-0.1,0-0.3,0.1-0.4,0.2c-0.5,0.3-1.3,0.5-1.9,0.7c-0.1,0-0.3,0.1-0.3,0.2
		c0,0.3,0.3,0.2,0.5,0.2c1,0,0.8,0.9,0.8,1.7v9.6c0,0.9,0.2,1.6-0.9,1.7c-0.2,0-0.6,0-0.6,0.3c0,0.2,0.1,0.2,0.3,0.2
		c0.6,0,1.3-0.1,2-0.1c0.6,0,1.3,0.1,1.9,0.1c0.1,0,0.2-0.1,0.2-0.2c0-0.3-0.4-0.3-0.6-0.3c-1.1-0.1-0.9-0.8-0.9-1.7V49z"/>
	<path class="st2" d="M47.8,58.6c0.1,0,0.2-0.1,0.2-0.1c0.2,0,0.1,0.5,0.1,0.6v1.3c0,0.7,0,1.1-0.5,1.6c-0.5,0.5-1.2,0.8-1.9,0.8
		c-0.8,0-1.4-0.4-1.4-1.2c0-1,0.8-1.6,1.6-2L47.8,58.6z M45.9,59.1c-1.1,0.6-3,1.5-3,3c0,1.1,1,1.7,1.9,1.7c1.8,0,3.1-1.6,3.3-1.6
		c0.3,0,0.4,1.5,1.4,1.5c0.5,0,1.1-0.3,1.5-0.6c0.1-0.1,0.5-0.4,0.5-0.7c0-0.1-0.1-0.2-0.1-0.2c-0.2,0-0.4,0.5-0.9,0.5
		c-0.7,0-0.7-1.2-0.7-1.7v-5c0-0.6,0.1-1.1-0.4-1.5c-0.5-0.4-1.2-0.5-1.9-0.5c-1.3,0-2.7,0.6-3.7,1.5c-0.4,0.3-0.9,1-0.9,1.5
		c0,0.2,0.1,0.3,0.3,0.3c0.2,0,0.7-0.2,0.9-0.3c0.3-0.2,0.4-0.4,0.6-0.8c0.5-1.1,1.1-1.8,2.4-1.8c1.3,0,1.3,0.9,1.3,1.9v0.9
		c0,0.8,0,0.8-0.8,1.2L45.9,59.1z"/>
	<path class="st4" d="M53.9,61.3c0,0.9,0.2,1.6-0.9,1.7c-0.2,0-0.6,0-0.6,0.3c0,0.2,0.1,0.2,0.3,0.2c0.6,0,1.3-0.1,2-0.1
		c0.6,0,1.3,0.1,1.9,0.1c0.1,0,0.2-0.1,0.2-0.2c0-0.3-0.4-0.3-0.6-0.3c-1.1-0.1-0.9-0.8-0.9-1.7v-3.8c0-0.9,0-1.4,0.7-2
		c0.5-0.5,1.1-0.7,1.8-0.8c0.7-0.1,1.5,0.3,1.8,1c0.3,0.5,0.3,1.4,0.3,2v3.6c0,0.9,0.2,1.6-0.9,1.7c-0.2,0-0.6,0-0.6,0.3
		c0,0.2,0.1,0.2,0.3,0.2c0.6,0,1.3-0.1,2-0.1c0.6,0,1.3,0.1,1.9,0.1c0.1,0,0.2-0.1,0.2-0.2c0-0.3-0.4-0.3-0.6-0.3
		c-1.1-0.1-0.9-0.8-0.9-1.7v-3.8c0-0.9,0-1.4,0.7-2c0.5-0.5,1.1-0.7,1.8-0.8c0.7-0.1,1.5,0.3,1.8,1c0.3,0.5,0.3,1.4,0.3,2v3.6
		c0,0.9,0.2,1.6-0.9,1.7c-0.2,0-0.6,0-0.6,0.3c0,0.2,0.1,0.2,0.3,0.2c0.6,0,1.3-0.1,2-0.1c0.6,0,1.3,0.1,1.9,0.1
		c0.1,0,0.2-0.1,0.2-0.2c0-0.3-0.4-0.3-0.6-0.3c-1.1-0.1-0.9-0.8-0.9-1.7v-3.6c0-1,0-2-0.6-2.8c-0.5-0.6-1-1-2.2-1
		c-1.9,0-3,1.8-3.2,1.8c-0.3,0-0.5-1.8-2.6-1.8c-1.8,0-2.9,1.6-3.2,1.6c-0.2,0-0.1-1-0.1-1.3c0-0.1,0-0.3-0.2-0.3
		c-0.2,0-0.3,0.2-0.4,0.3c-0.3,0.4-1.2,1-1.7,1.1c-0.2,0.1-0.5,0.1-0.5,0.4c0,0.1,0.1,0.2,0.2,0.2h0.3c0.2,0,0.5,0,0.6,0.2
		c0.2,0.2,0.2,1.1,0.2,1.4V61.3z"/>
	<path class="st2" d="M74.6,58.6c0.1,0,0.2-0.1,0.2-0.1c0.2,0,0.1,0.5,0.1,0.6v1.3c0,0.7,0,1.1-0.5,1.6c-0.5,0.5-1.2,0.8-1.9,0.8
		c-0.8,0-1.4-0.4-1.4-1.2c0-1,0.8-1.6,1.6-2L74.6,58.6z M72.6,59.1c-1.1,0.6-3,1.5-3,3c0,1.1,1,1.7,1.9,1.7c1.8,0,3.1-1.6,3.3-1.6
		c0.3,0,0.4,1.5,1.4,1.5c0.5,0,1.1-0.3,1.5-0.6c0.1-0.1,0.5-0.4,0.5-0.7c0-0.1-0.1-0.2-0.1-0.2c-0.2,0-0.4,0.5-0.9,0.5
		c-0.7,0-0.7-1.2-0.7-1.7v-5c0-0.6,0.1-1.1-0.4-1.5c-0.5-0.4-1.2-0.5-1.9-0.5c-1.3,0-2.7,0.6-3.7,1.5c-0.4,0.3-0.9,1-0.9,1.5
		c0,0.2,0.1,0.3,0.3,0.3c0.2,0,0.7-0.2,0.9-0.3c0.3-0.2,0.4-0.4,0.6-0.8c0.5-1.1,1.1-1.8,2.4-1.8c1.3,0,1.3,0.9,1.3,1.9v0.9
		c0,0.8,0,0.8-0.8,1.2L72.6,59.1z"/>
	<path class="st4" d="M80.7,61.3c0,0.9,0.2,1.6-0.9,1.7c-0.2,0-0.6,0-0.6,0.3c0,0.2,0.1,0.2,0.3,0.2c0.6,0,1.3-0.1,2-0.1
		c0.6,0,1.3,0.1,1.9,0.1c0.1,0,0.2-0.1,0.2-0.2c0-0.3-0.4-0.3-0.6-0.3c-1.1-0.1-0.9-0.8-0.9-1.7v-3.6c0-0.8,0.1-1.3,0.7-1.9
		c0.5-0.6,1.3-0.9,2-0.9c0.8,0,1.5,0.3,1.9,1c0.4,0.6,0.4,1.4,0.4,2.1v3.4c0,0.9,0.2,1.6-0.9,1.7c-0.2,0-0.6,0-0.6,0.3
		c0,0.2,0.1,0.2,0.3,0.2c0.6,0,1.3-0.1,2-0.1c0.6,0,1.3,0.1,1.9,0.1c0.1,0,0.2-0.1,0.2-0.2c0-0.3-0.4-0.3-0.6-0.3
		c-1.1-0.1-0.9-0.8-0.9-1.7V58c0-1,0-2.1-0.6-2.9c-0.6-0.8-1.4-1.1-2.4-1.1c-1.9,0-3,1.7-3.4,1.7v-1.4c0-0.1,0-0.3-0.2-0.3
		c-0.2,0-0.3,0.2-0.4,0.3c-0.3,0.4-1.2,1-1.7,1.1c-0.2,0.1-0.5,0.1-0.5,0.4c0,0.1,0.1,0.2,0.2,0.2h0.3c0.2,0,0.5,0,0.6,0.2
		c0.2,0.2,0.2,1.1,0.2,1.4V61.3z"/>
	<path class="st2" d="M102.7,53.8c0-0.1,0.2-0.6,0.4-0.6c0.1,0,0.3,0.5,0.3,0.6l1.5,3.6c0,0,0.2,0.4,0.2,0.5c0,0.2-0.5,0.2-0.6,0.2
		h-2.5c-0.1,0-0.8,0.1-0.8-0.1c0-0.1,0-0.2,0.1-0.3L102.7,53.8z M100.5,59.5c0.3-0.8,0.2-0.8,1.1-0.8h3c1,0,0.9,0,1.3,1.1l0.7,1.6
		c0.1,0.3,0.3,0.7,0.3,1c0,0.6-0.8,0.6-1.4,0.6c-0.2,0-0.6,0-0.6,0.3c0,0.2,0.2,0.2,0.3,0.2c0.8,0,1.6-0.1,2.4-0.1
		c1,0,1.9,0.1,2.9,0.1c0.1,0,0.3,0,0.3-0.2c0-0.3-0.4-0.3-0.6-0.3c-1.1,0-1.4-1.2-1.8-2.1L104,50.4c0-0.1-0.1-0.4-0.3-0.4
		c-0.2,0-0.3,0.3-0.4,0.5L99.1,61c-0.2,0.4-0.5,1.4-0.8,1.7c-0.3,0.3-0.7,0.3-1.1,0.3c-0.2,0-0.6,0-0.6,0.3c0,0.4,0.6,0.2,0.8,0.2
		c0.6,0,1.2-0.1,1.8-0.1s1.2,0.1,1.8,0.1c0.2,0,0.5,0,0.5-0.3c0-0.3-0.4-0.3-0.6-0.3c-0.5,0-1.5-0.1-1.5-0.8c0-0.4,0.2-0.8,0.3-1.2
		L100.5,59.5z"/>
	<path class="st2" d="M113.7,52.1c0.6,0,1-0.5,1-1.1c0-0.5-0.3-1-0.9-1c-0.6,0-1,0.5-1,1.1C112.8,51.6,113.1,52.1,113.7,52.1
		 M114.4,54.3c0-0.1,0-0.3-0.2-0.3c-0.2,0-0.3,0.2-0.4,0.3c-0.3,0.4-1.3,1-1.8,1.1c-0.2,0.1-0.5,0.1-0.5,0.4c0,0.1,0.1,0.2,0.3,0.2
		h0.3c0.2,0,0.5,0,0.6,0.2c0.2,0.2,0.2,1.1,0.2,1.4v4c0,0.9,0.2,1.6-1,1.7c-0.2,0-0.6,0-0.6,0.3c0,0.2,0.2,0.2,0.3,0.2
		c0.7,0,1.4-0.1,2.1-0.1c0.7,0,1.3,0.1,2,0.1c0.2,0,0.3-0.1,0.3-0.2c0-0.3-0.4-0.3-0.6-0.3c-1.2-0.1-1-0.8-1-1.7V54.3z"/>
	<path class="st4" d="M118.4,61.3c0,0.9,0.2,1.6-1,1.7c-0.2,0-0.6,0-0.6,0.3c0,0.2,0.2,0.2,0.3,0.2c0.7,0,1.4-0.1,2.1-0.1
		c0.7,0,1.3,0.1,2,0.1c0.2,0,0.3-0.1,0.3-0.2c0-0.3-0.4-0.3-0.6-0.3c-1.2-0.1-1-0.8-1-1.7V58c0-0.8,0-1.4,0.5-2.1
		c0.3-0.3,0.6-0.8,1.1-0.8c0.6,0,0.7,0.8,1.4,0.8c0.5,0,0.9-0.3,0.9-0.8c0-0.6-0.6-1-1.2-1c-1.5,0-2.3,1.7-2.6,1.7
		c-0.2,0-0.1-0.4-0.1-0.4v-1c0-0.1,0-0.3-0.2-0.3c-0.2,0-0.3,0.2-0.4,0.3c-0.3,0.4-1.3,1-1.8,1.1c-0.2,0.1-0.5,0.1-0.5,0.4
		c0,0.1,0.1,0.2,0.3,0.2h0.3c0.2,0,0.5,0,0.6,0.2c0.2,0.2,0.2,1.1,0.2,1.4V61.3z"/>
	<path class="st2" d="M133.9,59c0,2.2-1.5,4.3-4,4.3c-0.7,0-1.4-0.2-1.9-0.6c-0.6-0.5-0.7-1.3-0.7-2.1v-3.3c0-0.5,0-1.1,0.4-1.5
		c0.5-0.8,1.6-1.1,2.5-1.1c1,0,2,0.4,2.7,1.1C133.6,56.8,133.9,57.9,133.9,59 M125.8,66.1c0,0.9,0.2,1.6-1,1.7c-0.2,0-0.6,0-0.6,0.3
		c0,0.2,0.2,0.2,0.3,0.2c0.7,0,1.4-0.1,2.1-0.1c0.7,0,1.3,0.1,2,0.1c0.2,0,0.3-0.1,0.3-0.2c0-0.3-0.4-0.3-0.6-0.3
		c-1.2-0.1-1-0.8-1-1.7v-2.3c0-0.1-0.1-0.6,0.2-0.6c0.1,0,0.4,0.1,0.5,0.1c0.8,0.3,1.3,0.4,2.2,0.4c3,0,5.4-2.1,5.4-5
		c0-1.2-0.5-2.5-1.3-3.3c-0.8-0.8-2.1-1.5-3.3-1.5c-1.3,0-2.5,0.6-3.7,1.5v-1.2c0-0.1,0-0.3-0.2-0.3c-0.2,0-0.3,0.2-0.4,0.3
		c-0.3,0.4-1.3,1-1.8,1.1c-0.2,0.1-0.5,0.1-0.5,0.4c0,0.1,0.1,0.2,0.3,0.2h0.3c0.2,0,0.5,0,0.6,0.2c0.2,0.2,0.2,1.1,0.2,1.4V66.1z"
		/>
	<path class="st2" d="M142.5,63.3c-2.5,0-3.8-2.6-3.8-4.7c0-2.2,1.3-4.3,3.7-4.3c2.5,0,3.8,2.4,3.8,4.6
		C146.2,60.9,144.9,63.3,142.5,63.3 M142.5,63.8c2.9,0,5.4-2.1,5.4-5c0-1.4-0.6-2.7-1.7-3.6c-1-0.9-2.3-1.2-3.7-1.2
		c-1.5,0-2.9,0.4-3.9,1.4c-0.9,0.9-1.5,2.1-1.5,3.4C137.1,61.7,139.5,63.8,142.5,63.8z"/>
	<path class="st4" d="M150.5,61.3c0,0.9,0.2,1.6-1,1.7c-0.2,0-0.6,0-0.6,0.3c0,0.2,0.2,0.2,0.3,0.2c0.7,0,1.4-0.1,2.1-0.1
		c0.7,0,1.3,0.1,2,0.1c0.2,0,0.3-0.1,0.3-0.2c0-0.3-0.4-0.3-0.6-0.3c-1.2-0.1-1-0.8-1-1.7V58c0-0.8,0-1.4,0.5-2.1
		c0.3-0.3,0.6-0.8,1.1-0.8c0.6,0,0.7,0.8,1.4,0.8c0.5,0,0.9-0.3,0.9-0.8c0-0.6-0.6-1-1.2-1c-1.5,0-2.3,1.7-2.6,1.7
		c-0.2,0-0.1-0.4-0.1-0.4v-1c0-0.1,0-0.3-0.2-0.3c-0.2,0-0.3,0.2-0.4,0.3c-0.3,0.4-1.3,1-1.8,1.1c-0.2,0.1-0.5,0.1-0.5,0.4
		c0,0.1,0.1,0.2,0.3,0.2h0.3c0.2,0,0.5,0,0.6,0.2c0.2,0.2,0.2,1.1,0.2,1.4V61.3z"/>
	<path class="st4" d="M158.8,55.1c0-0.6,0.3-0.5,0.8-0.5h1.2c0.5,0,0.7,0.1,0.7-0.3c0-0.2,0-0.3-0.2-0.3h-2.1
		c-0.3,0-0.3-0.1-0.3-0.4v-1.5c0-0.1,0-0.3-0.2-0.3c-0.1,0-0.2,0.1-0.2,0.2c-0.5,1-1.1,1.5-2.1,2.1c-0.1,0.1-0.3,0.2-0.3,0.3
		c0,0.3,0.6,0.2,0.7,0.2c0.4,0,0.5-0.1,0.5,0.4v5.4c0,0.8-0.1,1.9,0.5,2.6c0.4,0.4,1,0.7,1.6,0.7c0.8,0,1.5-0.3,2-0.8
		c0.2-0.1,0.4-0.4,0.4-0.6c0-0.1-0.1-0.1-0.2-0.1c-0.2,0-0.8,0.7-1.6,0.7c-1.3,0-1.3-1.6-1.3-2.5V55.1z"/>
</g>
</svg>
